<?xml version="1.0" standalone="no"?><!-- Generator: Gravit.io --><svg xmlns="http://www.w3.org/2000/svg" xmlns:xlink="http://www.w3.org/1999/xlink" style="isolation:isolate" viewBox="0 0 50 50" width="50" height="50"><defs><clipPath id="_clipPath_tE5Pp560iwh3uVET5YYzy5E2tIQEXAEm"><rect width="50" height="50"/></clipPath></defs><g clip-path="url(#_clipPath_tE5Pp560iwh3uVET5YYzy5E2tIQEXAEm)"><clipPath id="_clipPath_mEE2QBeO6IyQ176wtCMzTcB1SbAgYrJl"><rect x="0" y="0" width="50" height="50" transform="matrix(1,0,0,1,0,0)" fill="rgb(255,255,255)"/></clipPath><g clip-path="url(#_clipPath_mEE2QBeO6IyQ176wtCMzTcB1SbAgYrJl)"><g id="Group"><path d=" M 4.167 0 C 1.875 0 0 1.875 0 4.167 L 0 45.833 C 0 48.125 1.875 50 4.167 50 L 45.833 50 C 48.125 50 50 48.125 50 45.833 L 50 4.167 C 50 1.875 48.125 0 45.833 0 L 4.167 0 Z  M 4.167 1.667 L 45.833 1.667 C 47.223 1.667 48.333 2.777 48.333 4.167 L 48.333 45.833 C 48.333 47.223 47.223 48.333 45.833 48.333 L 4.167 48.333 C 2.777 48.333 1.667 47.223 1.667 45.833 L 1.667 4.167 C 1.667 2.777 2.777 1.667 4.167 1.667 Z  M 13.333 5.833 C 12.875 5.833 12.5 6.208 12.5 6.667 C 12.5 7.125 12.875 7.5 13.333 7.5 C 13.792 7.5 14.167 7.125 14.167 6.667 C 14.167 6.208 13.792 5.833 13.333 5.833 Z  M 16.667 5.833 C 16.208 5.833 15.833 6.208 15.833 6.667 C 15.833 7.125 16.208 7.5 16.667 7.5 C 17.125 7.5 17.5 7.125 17.5 6.667 C 17.5 6.208 17.125 5.833 16.667 5.833 Z  M 20 5.833 C 19.542 5.833 19.167 6.208 19.167 6.667 C 19.167 7.125 19.542 7.5 20 7.5 C 20.458 7.5 20.833 7.125 20.833 6.667 C 20.833 6.208 20.458 5.833 20 5.833 Z  M 23.333 5.833 C 22.875 5.833 22.5 6.208 22.5 6.667 C 22.5 7.125 22.875 7.5 23.333 7.5 C 23.792 7.5 24.167 7.125 24.167 6.667 C 24.167 6.208 23.792 5.833 23.333 5.833 Z  M 26.667 5.833 C 26.208 5.833 25.833 6.208 25.833 6.667 C 25.833 7.125 26.208 7.5 26.667 7.5 C 27.125 7.5 27.5 7.125 27.5 6.667 C 27.5 6.208 27.125 5.833 26.667 5.833 Z  M 30 5.833 C 29.542 5.833 29.167 6.208 29.167 6.667 C 29.167 7.125 29.542 7.5 30 7.5 C 30.458 7.5 30.833 7.125 30.833 6.667 C 30.833 6.208 30.458 5.833 30 5.833 Z  M 33.333 5.833 C 32.875 5.833 32.5 6.208 32.5 6.667 C 32.5 7.125 32.875 7.5 33.333 7.5 C 33.792 7.5 34.167 7.125 34.167 6.667 C 34.167 6.208 33.792 5.833 33.333 5.833 Z  M 36.667 5.833 C 36.208 5.833 35.833 6.208 35.833 6.667 C 35.833 7.125 36.208 7.5 36.667 7.5 C 37.125 7.5 37.5 7.125 37.5 6.667 C 37.5 6.208 37.125 5.833 36.667 5.833 Z  M 6.667 12.5 C 6.208 12.5 5.833 12.875 5.833 13.333 C 5.833 13.792 6.208 14.167 6.667 14.167 C 7.125 14.167 7.5 13.792 7.5 13.333 C 7.5 12.875 7.125 12.5 6.667 12.5 Z  M 43.333 12.5 C 42.875 12.5 42.5 12.875 42.5 13.333 C 42.5 13.792 42.875 14.167 43.333 14.167 C 43.792 14.167 44.167 13.792 44.167 13.333 C 44.167 12.875 43.792 12.5 43.333 12.5 Z  M 20 13.333 C 19.542 13.333 19.167 13.708 19.167 14.167 L 15 14.167 C 14.542 14.167 14.167 14.542 14.167 15 L 14.167 19.167 C 13.708 19.167 13.333 19.542 13.333 20 C 13.333 20.458 13.708 20.833 14.167 20.833 L 14.167 22.5 C 13.708 22.5 13.333 22.875 13.333 23.333 C 13.333 23.792 13.708 24.167 14.167 24.167 L 14.167 25.833 C 13.708 25.833 13.333 26.208 13.333 26.667 C 13.333 27.125 13.708 27.5 14.167 27.5 L 14.167 29.167 C 13.708 29.167 13.333 29.542 13.333 30 C 13.333 30.458 13.708 30.833 14.167 30.833 L 14.167 35 C 14.167 35.458 14.542 35.833 15 35.833 L 19.167 35.833 C 19.167 36.292 19.542 36.667 20 36.667 C 20.458 36.667 20.833 36.292 20.833 35.833 L 22.5 35.833 C 22.5 36.292 22.875 36.667 23.333 36.667 C 23.792 36.667 24.167 36.292 24.167 35.833 L 25.833 35.833 C 25.833 36.292 26.208 36.667 26.667 36.667 C 27.125 36.667 27.5 36.292 27.5 35.833 L 29.167 35.833 C 29.167 36.292 29.542 36.667 30 36.667 C 30.458 36.667 30.833 36.292 30.833 35.833 L 35 35.833 C 35.458 35.833 35.833 35.458 35.833 35 L 35.833 30.833 C 36.292 30.833 36.667 30.458 36.667 30 C 36.667 29.542 36.292 29.167 35.833 29.167 L 35.833 27.5 C 36.292 27.5 36.667 27.125 36.667 26.667 C 36.667 26.208 36.292 25.833 35.833 25.833 L 35.833 24.167 C 36.292 24.167 36.667 23.792 36.667 23.333 C 36.667 22.875 36.292 22.5 35.833 22.5 L 35.833 20.833 C 36.292 20.833 36.667 20.458 36.667 20 C 36.667 19.542 36.292 19.167 35.833 19.167 L 35.833 15 C 35.833 14.542 35.458 14.167 35 14.167 L 30.833 14.167 C 30.833 13.708 30.458 13.333 30 13.333 C 29.542 13.333 29.167 13.708 29.167 14.167 L 27.5 14.167 C 27.5 13.708 27.125 13.333 26.667 13.333 C 26.208 13.333 25.833 13.708 25.833 14.167 L 24.167 14.167 C 24.167 13.708 23.792 13.333 23.333 13.333 C 22.875 13.333 22.5 13.708 22.5 14.167 L 20.833 14.167 C 20.833 13.708 20.458 13.333 20 13.333 Z  M 6.667 15.833 C 6.208 15.833 5.833 16.208 5.833 16.667 C 5.833 17.125 6.208 17.5 6.667 17.5 C 7.125 17.5 7.5 17.125 7.5 16.667 C 7.5 16.208 7.125 15.833 6.667 15.833 Z  M 15.833 15.833 L 34.167 15.833 L 34.167 34.167 L 15.833 34.167 L 15.833 15.833 Z  M 43.333 15.833 C 42.875 15.833 42.5 16.208 42.5 16.667 C 42.5 17.125 42.875 17.5 43.333 17.5 C 43.792 17.5 44.167 17.125 44.167 16.667 C 44.167 16.208 43.792 15.833 43.333 15.833 Z  M 6.667 19.167 C 6.208 19.167 5.833 19.542 5.833 20 C 5.833 20.458 6.208 20.833 6.667 20.833 C 7.125 20.833 7.5 20.458 7.5 20 C 7.5 19.542 7.125 19.167 6.667 19.167 Z  M 43.333 19.167 C 42.875 19.167 42.5 19.542 42.5 20 C 42.5 20.458 42.875 20.833 43.333 20.833 C 43.792 20.833 44.167 20.458 44.167 20 C 44.167 19.542 43.792 19.167 43.333 19.167 Z  M 6.667 22.5 C 6.208 22.5 5.833 22.875 5.833 23.333 C 5.833 23.792 6.208 24.167 6.667 24.167 C 7.125 24.167 7.5 23.792 7.5 23.333 C 7.5 22.875 7.125 22.5 6.667 22.5 Z  M 43.333 22.5 C 42.875 22.5 42.5 22.875 42.5 23.333 C 42.5 23.792 42.875 24.167 43.333 24.167 C 43.792 24.167 44.167 23.792 44.167 23.333 C 44.167 22.875 43.792 22.5 43.333 22.5 Z  M 6.667 25.833 C 6.208 25.833 5.833 26.208 5.833 26.667 C 5.833 27.125 6.208 27.5 6.667 27.5 C 7.125 27.5 7.5 27.125 7.5 26.667 C 7.5 26.208 7.125 25.833 6.667 25.833 Z  M 43.333 25.833 C 42.875 25.833 42.5 26.208 42.5 26.667 C 42.5 27.125 42.875 27.5 43.333 27.5 C 43.792 27.5 44.167 27.125 44.167 26.667 C 44.167 26.208 43.792 25.833 43.333 25.833 Z  M 6.667 29.167 C 6.208 29.167 5.833 29.542 5.833 30 C 5.833 30.458 6.208 30.833 6.667 30.833 C 7.125 30.833 7.5 30.458 7.5 30 C 7.5 29.542 7.125 29.167 6.667 29.167 Z  M 43.333 29.167 C 42.875 29.167 42.5 29.542 42.5 30 C 42.5 30.458 42.875 30.833 43.333 30.833 C 43.792 30.833 44.167 30.458 44.167 30 C 44.167 29.542 43.792 29.167 43.333 29.167 Z  M 6.667 32.5 C 6.208 32.5 5.833 32.875 5.833 33.333 C 5.833 33.792 6.208 34.167 6.667 34.167 C 7.125 34.167 7.5 33.792 7.5 33.333 C 7.5 32.875 7.125 32.5 6.667 32.5 Z  M 43.333 32.5 C 42.875 32.5 42.5 32.875 42.5 33.333 C 42.5 33.792 42.875 34.167 43.333 34.167 C 43.792 34.167 44.167 33.792 44.167 33.333 C 44.167 32.875 43.792 32.5 43.333 32.5 Z  M 6.667 35.833 C 6.208 35.833 5.833 36.208 5.833 36.667 C 5.833 37.125 6.208 37.5 6.667 37.5 C 7.125 37.5 7.5 37.125 7.5 36.667 C 7.5 36.208 7.125 35.833 6.667 35.833 Z  M 43.333 35.833 C 42.875 35.833 42.5 36.208 42.5 36.667 C 42.5 37.125 42.875 37.5 43.333 37.5 C 43.792 37.5 44.167 37.125 44.167 36.667 C 44.167 36.208 43.792 35.833 43.333 35.833 Z  M 13.333 42.5 C 12.875 42.5 12.5 42.875 12.5 43.333 C 12.5 43.792 12.875 44.167 13.333 44.167 C 13.792 44.167 14.167 43.792 14.167 43.333 C 14.167 42.875 13.792 42.5 13.333 42.5 Z  M 16.667 42.5 C 16.208 42.5 15.833 42.875 15.833 43.333 C 15.833 43.792 16.208 44.167 16.667 44.167 C 17.125 44.167 17.5 43.792 17.5 43.333 C 17.5 42.875 17.125 42.5 16.667 42.5 Z  M 20 42.5 C 19.542 42.5 19.167 42.875 19.167 43.333 C 19.167 43.792 19.542 44.167 20 44.167 C 20.458 44.167 20.833 43.792 20.833 43.333 C 20.833 42.875 20.458 42.5 20 42.5 Z  M 23.333 42.5 C 22.875 42.5 22.5 42.875 22.5 43.333 C 22.5 43.792 22.875 44.167 23.333 44.167 C 23.792 44.167 24.167 43.792 24.167 43.333 C 24.167 42.875 23.792 42.5 23.333 42.5 Z  M 26.667 42.5 C 26.208 42.5 25.833 42.875 25.833 43.333 C 25.833 43.792 26.208 44.167 26.667 44.167 C 27.125 44.167 27.5 43.792 27.5 43.333 C 27.5 42.875 27.125 42.5 26.667 42.5 Z  M 30 42.5 C 29.542 42.5 29.167 42.875 29.167 43.333 C 29.167 43.792 29.542 44.167 30 44.167 C 30.458 44.167 30.833 43.792 30.833 43.333 C 30.833 42.875 30.458 42.5 30 42.5 Z  M 33.333 42.5 C 32.875 42.5 32.5 42.875 32.5 43.333 C 32.5 43.792 32.875 44.167 33.333 44.167 C 33.792 44.167 34.167 43.792 34.167 43.333 C 34.167 42.875 33.792 42.5 33.333 42.5 Z  M 36.667 42.5 C 36.208 42.5 35.833 42.875 35.833 43.333 C 35.833 43.792 36.208 44.167 36.667 44.167 C 37.125 44.167 37.5 43.792 37.5 43.333 C 37.5 42.875 37.125 42.5 36.667 42.5 Z " fill="none" vector-effect="non-scaling-stroke" stroke-width="1" stroke="rgb(189,195,199)" stroke-linejoin="miter" stroke-linecap="butt" stroke-miterlimit="4"/></g></g></g></svg>