<?xml version="1.0" standalone="no"?><!-- Generator: Gravit.io --><svg xmlns="http://www.w3.org/2000/svg" xmlns:xlink="http://www.w3.org/1999/xlink" style="isolation:isolate" viewBox="0 0 50 50" width="50" height="50"><defs><clipPath id="_clipPath_PfuWZdn08ihPfGlwsvQc7I9ZKO8WjLYp"><rect width="50" height="50"/></clipPath></defs><g clip-path="url(#_clipPath_PfuWZdn08ihPfGlwsvQc7I9ZKO8WjLYp)"><path d=" M 41.755 42.49 L 41.664 42.49 C 39.135 42.49 36.881 41.071 35.906 38.84 L 31.336 28.497 L 18.664 28.497 L 14.094 38.84 C 13.124 41.049 10.854 42.488 8.336 42.49 L 8.245 42.49 C 4.803 42.49 2 39.825 2 36.551 L 2 18.995 C 2.003 15.722 3.77 12.678 6.681 10.932 C 9.592 9.187 13.241 8.982 16.348 10.39 C 19.395 10.941 22.502 11.202 25.548 11.202 C 28.046 11.202 30.605 11.028 33.134 10.651 C 34.937 9.711 36.999 9.317 39.044 9.521 C 39.196 9.521 39.318 9.55 39.409 9.579 C 44.331 10.259 47.987 14.265 48 18.995 L 48 36.551 C 48 39.825 45.197 42.49 41.755 42.49 L 41.755 42.49 Z  M 18.176 27.136 L 31.793 27.136 C 32.098 27.136 32.342 27.31 32.464 27.57 L 37.216 38.319 C 37.977 40.028 39.714 41.129 41.633 41.129 L 41.725 41.129 C 44.375 41.129 46.538 39.072 46.538 36.551 L 46.538 18.995 C 46.538 14.939 43.37 11.462 39.135 10.912 C 39.105 10.912 39.074 10.912 39.013 10.883 L 38.922 10.883 C 38.587 10.854 38.282 10.825 37.977 10.825 C 36.485 10.825 35.023 11.202 33.713 11.897 C 33.621 11.926 33.56 11.955 33.469 11.984 C 30.819 12.36 28.138 12.563 25.518 12.563 C 22.319 12.563 19.09 12.274 15.952 11.694 C 15.891 11.694 15.83 11.665 15.77 11.636 C 14.581 11.086 13.332 10.796 11.992 10.796 C 7.27 10.796 3.432 14.446 3.432 18.937 L 3.432 36.493 C 3.432 39.014 5.595 41.071 8.245 41.071 L 8.336 41.071 C 10.286 41.071 12.023 39.97 12.754 38.261 L 17.506 27.512 C 17.597 27.31 17.872 27.136 18.176 27.136 L 18.176 27.136 Z  M 11.352 25.079 C 10.822 25.087 10.31 24.892 9.932 24.538 C 9.554 24.184 9.342 23.7 9.342 23.196 L 9.342 23.08 C 9.342 22.79 9.098 22.587 8.824 22.587 L 8.702 22.587 C 7.605 22.587 6.722 21.747 6.722 20.704 L 6.722 20.675 C 6.722 19.632 7.605 18.792 8.702 18.792 L 8.824 18.792 C 9.128 18.792 9.342 18.56 9.342 18.3 L 9.342 18.184 C 9.342 17.141 10.225 16.301 11.322 16.301 L 11.352 16.301 C 12.449 16.301 13.332 17.141 13.332 18.184 L 13.332 18.3 C 13.332 18.589 13.576 18.792 13.85 18.792 L 13.972 18.792 C 15.069 18.792 15.952 19.632 15.952 20.675 L 15.952 20.704 C 15.952 21.747 15.069 22.587 13.972 22.587 L 13.85 22.587 C 13.546 22.587 13.332 22.819 13.332 23.08 L 13.332 23.196 C 13.332 24.239 12.419 25.079 11.352 25.079 L 11.352 25.079 Z  M 8.672 20.154 C 8.367 20.154 8.154 20.385 8.154 20.646 L 8.154 20.675 C 8.154 20.965 8.397 21.168 8.672 21.168 L 8.793 21.168 C 9.89 21.168 10.774 22.008 10.774 23.051 L 10.774 23.167 C 10.774 23.456 11.017 23.659 11.291 23.659 L 11.322 23.659 C 11.626 23.659 11.84 23.427 11.84 23.167 L 11.84 23.051 C 11.84 22.008 12.723 21.168 13.82 21.168 L 13.942 21.168 C 14.246 21.168 14.46 20.936 14.46 20.675 L 14.46 20.646 C 14.46 20.356 14.216 20.154 13.942 20.154 L 13.82 20.154 C 12.723 20.154 11.84 19.314 11.84 18.271 L 11.84 18.155 C 11.84 17.865 11.596 17.662 11.322 17.662 L 11.291 17.662 C 10.987 17.662 10.774 17.894 10.774 18.155 L 10.774 18.271 C 10.774 19.314 9.89 20.154 8.793 20.154 L 8.672 20.154 L 8.672 20.154 Z  M 38.952 18.821 C 37.703 18.821 36.698 17.865 36.698 16.677 C 36.698 15.489 37.703 14.533 38.952 14.533 C 40.201 14.533 41.207 15.489 41.207 16.677 C 41.207 17.865 40.201 18.821 38.952 18.821 Z  M 38.952 15.924 C 38.495 15.924 38.13 16.272 38.13 16.706 C 38.13 17.141 38.495 17.488 38.952 17.488 C 39.409 17.488 39.775 17.141 39.775 16.706 C 39.775 16.272 39.409 15.924 38.952 15.924 Z  M 38.952 25.658 C 37.703 25.658 36.698 24.702 36.698 23.514 C 36.698 22.327 37.703 21.37 38.952 21.37 C 40.201 21.37 41.207 22.327 41.207 23.514 C 41.207 24.702 40.201 25.658 38.952 25.658 Z  M 38.952 22.761 C 38.495 22.761 38.13 23.109 38.13 23.543 C 38.13 23.978 38.495 24.326 38.952 24.326 C 39.409 24.326 39.775 23.978 39.775 23.543 C 39.775 23.08 39.409 22.761 38.952 22.761 Z  M 42.547 22.24 C 41.298 22.24 40.293 21.284 40.293 20.096 C 40.293 18.908 41.298 17.952 42.547 17.952 C 43.796 17.952 44.801 18.908 44.801 20.096 C 44.801 21.284 43.796 22.24 42.547 22.24 Z  M 42.547 19.343 C 42.09 19.343 41.725 19.69 41.725 20.125 C 41.725 20.559 42.09 20.907 42.547 20.907 C 43.004 20.907 43.37 20.559 43.37 20.125 C 43.37 19.69 43.004 19.343 42.547 19.343 Z  M 35.388 22.24 C 34.139 22.24 33.134 21.284 33.134 20.096 C 33.134 18.908 34.139 17.952 35.388 17.952 C 36.637 17.952 37.642 18.908 37.642 20.096 C 37.642 21.284 36.607 22.24 35.388 22.24 Z  M 35.388 19.343 C 34.931 19.343 34.566 19.69 34.566 20.125 C 34.566 20.559 34.931 20.907 35.388 20.907 C 35.845 20.907 36.211 20.559 36.211 20.125 C 36.18 19.69 35.815 19.343 35.388 19.343 Z  M 27.163 22.24 L 22.807 22.24 C 22.411 22.24 22.075 21.921 22.075 21.544 L 22.075 19.082 C 22.075 18.705 22.411 18.386 22.807 18.386 L 27.163 18.386 C 27.559 18.386 27.894 18.705 27.894 19.082 L 27.894 21.544 C 27.894 21.95 27.559 22.24 27.163 22.24 Z  M 23.538 20.878 L 26.432 20.878 L 26.432 19.777 L 23.538 19.777 L 23.538 20.878 Z " fill="none" vector-effect="non-scaling-stroke" stroke-width="0.8" stroke="rgb(189,195,199)" stroke-linejoin="miter" stroke-linecap="butt" stroke-miterlimit="4"/></g></svg>