<?xml version="1.0" standalone="no"?><!-- Generator: Gravit.io --><svg xmlns="http://www.w3.org/2000/svg" xmlns:xlink="http://www.w3.org/1999/xlink" style="isolation:isolate" viewBox="0 0 50 50" width="50" height="50"><defs><clipPath id="_clipPath_W8V30kHTmNwWUBlX2AnFRXbomHckQFsi"><rect width="50" height="50"/></clipPath></defs><g clip-path="url(#_clipPath_W8V30kHTmNwWUBlX2AnFRXbomHckQFsi)"><path d=" M 44.5 5.501 L 43.655 5.525 C 43.655 5.525 37.804 5.603 32.164 8.41 C 30.215 9.379 28.435 10.656 26.891 12.191 C 24.873 14.208 22.025 17.519 19.429 20.647 L 12.565 20.647 C 12.349 20.668 12.152 20.776 12.018 20.945 L 8.039 25.721 C 7.869 25.931 7.818 26.214 7.904 26.47 C 7.989 26.727 8.199 26.922 8.461 26.989 L 13.311 28.208 L 13.037 28.556 L 12.938 28.656 L 12.888 28.805 C 12.888 28.805 12.82 29.085 12.839 29.352 C 12.845 29.452 12.863 29.582 12.889 29.7 L 11.171 32.585 C 11.171 32.585 11.094 32.74 11.072 32.834 C 11.05 32.941 11.042 33.049 11.047 33.157 C 11.053 33.387 11.109 33.645 11.246 33.953 C 11.52 34.568 12.104 35.383 13.36 36.639 C 14.616 37.892 15.428 38.479 16.046 38.753 C 16.354 38.89 16.612 38.946 16.842 38.952 C 16.957 38.955 17.073 38.949 17.165 38.928 C 17.259 38.905 17.414 38.828 17.414 38.828 L 20.324 37.111 C 20.433 37.134 20.557 37.155 20.648 37.161 C 20.914 37.18 21.194 37.111 21.194 37.111 L 21.344 37.062 L 21.468 36.963 L 21.791 36.713 L 23.01 41.539 C 23.077 41.801 23.272 42.011 23.529 42.096 C 23.785 42.182 24.068 42.131 24.279 41.961 L 29.054 37.982 C 29.243 37.831 29.353 37.602 29.353 37.36 L 29.353 30.545 C 32.502 27.928 35.836 25.083 37.809 23.109 C 39.438 21.477 40.66 19.652 41.565 17.837 C 44.359 12.207 44.475 6.345 44.475 6.345 L 44.5 5.501 Z  M 42.784 7.216 C 42.718 8.413 42.404 12.589 40.147 17.14 C 39.308 18.828 38.183 20.498 36.69 21.99 C 34.75 23.93 31.336 26.84 28.159 29.476 C 28.094 29.517 28.035 29.567 27.985 29.625 C 25.575 31.621 23.145 33.595 20.698 35.545 C 20.605 35.535 20.459 35.526 20.2 35.42 C 19.607 35.178 18.565 34.557 17.017 33.009 C 15.469 31.46 14.822 30.393 14.579 29.8 C 14.474 29.542 14.465 29.395 14.455 29.302 C 16.388 26.87 18.344 24.458 20.325 22.064 C 20.407 21.996 20.475 21.912 20.524 21.816 C 23.132 18.67 26.023 15.296 28.01 13.31 C 29.508 11.811 31.175 10.695 32.86 9.852 C 37.418 7.587 41.59 7.278 42.784 7.216 Z  M 32.537 13.484 C 30.348 13.484 28.557 15.275 28.557 17.463 C 28.557 19.652 30.348 21.443 32.537 21.443 C 34.725 21.443 36.516 19.652 36.516 17.463 C 36.516 15.275 34.725 13.484 32.537 13.484 Z  M 32.537 15.076 C 33.864 15.076 34.924 16.136 34.924 17.463 C 34.924 18.791 33.864 19.851 32.537 19.851 C 31.209 19.851 30.149 18.791 30.149 17.463 C 30.149 16.136 31.209 15.076 32.537 15.076 Z  M 13.013 22.239 L 18.111 22.239 C 16.585 24.101 15.329 25.683 14.406 26.84 L 10.077 25.745 L 13.013 22.239 Z  M 13.685 31.466 C 14.138 32.194 14.804 33.058 15.873 34.127 C 16.94 35.193 17.807 35.862 18.534 36.315 L 16.818 37.337 C 16.793 37.33 16.796 37.333 16.694 37.286 C 16.367 37.143 15.655 36.693 14.48 35.521 C 13.308 34.346 12.857 33.633 12.714 33.307 C 12.667 33.204 12.671 33.208 12.664 33.183 L 13.685 31.466 Z  M 27.761 31.889 L 27.761 36.987 L 24.255 39.922 L 23.16 35.619 C 24.703 34.386 26.236 33.143 27.761 31.889 L 27.761 31.889 Z  M 10.575 35.147 C 9.275 36.145 8.1 36.272 7.044 37.31 C 6.515 37.83 6.095 38.567 5.85 39.574 C 5.604 40.581 5.501 41.881 5.501 43.704 L 5.501 44.5 L 6.296 44.5 C 9.953 44.5 11.74 43.921 12.813 42.833 C 13.885 41.745 14.063 40.533 14.878 39.426 L 13.583 38.48 C 12.552 39.886 12.322 41.051 11.669 41.714 C 11.094 42.298 9.813 42.727 7.167 42.833 C 7.207 41.677 7.263 40.566 7.416 39.948 C 7.615 39.142 7.857 38.754 8.162 38.456 C 8.768 37.859 9.956 37.591 11.52 36.391 L 10.575 35.147 Z  M 16.694 37.41 L 16.619 37.46 L 16.619 37.435 C 16.619 37.435 16.663 37.423 16.694 37.41 Z " fill="none" vector-effect="non-scaling-stroke" stroke-width="1" stroke="rgb(189,195,199)" stroke-linejoin="miter" stroke-linecap="butt" stroke-miterlimit="4"/></g></svg>